<svg id="Layer_1" data-name="Layer 1" xmlns="http://www.w3.org/2000/svg" viewBox="0 0 226.66 240.78"><defs><style>.cls-1{fill:#d3eaf4;}.cls-2{fill:#f15967;}.cls-3{font-size:100.69px;}.cls-3,.cls-4{fill:#333;font-family:D-DIN-Bold, D-DIN;font-weight:700;}.cls-4{font-size:26.29px;}.cls-5{letter-spacing:-0.01em;}.cls-6{letter-spacing:-0.02em;}.cls-7{letter-spacing:-0.01em;}.cls-8{letter-spacing:0em;}</style></defs><title>calendar</title><path class="cls-1" d="M243,263.73H87.24s-.06-.11-.09-.11h-.7a2.07,2.07,0,0,1-.75,0,1.19,1.19,0,0,0-.66-.09,2.42,2.42,0,0,1-.72-.13c-.24,0-.49.07-.73-.07s-.49.05-.69-.16a13.68,13.68,0,0,1-1.43-.21,5.72,5.72,0,0,0-1.42-.25,5.35,5.35,0,0,0-1-.35c-.36-.13-.75-.17-1.12-.28s-.89-.27-1.34-.43-.88-.31-1.32-.48c-.88-.35-1.75-.75-2.61-1.16a15,15,0,0,1-2.07-1.08c-.93-.62-1.91-1.16-2.82-1.82s-1.8-1.32-2.66-2c-.61-.5-1.17-1.06-1.74-1.61s-1-1-1.53-1.53a1.42,1.42,0,0,1-.24-.25c-.44-.66-1-1.19-1.5-1.83s-.86-1.08-1.25-1.65a39.28,39.28,0,0,1-2.1-3.4c-.56-1-1-2.06-1.5-3.11a6.14,6.14,0,0,1-.37-.84c-.19-.67-.49-1.29-.68-1.94s-.43-1.47-.64-2.2c-.14-.52-.25-1.06-.42-1.57a8.26,8.26,0,0,1-.26-1.24,5.21,5.21,0,0,0-.13-1.06c-.09-.24,0-.51-.12-.71a1.91,1.91,0,0,1-.1-.78s0-.13,0-.17c-.22-.25-.07-.55-.12-.83s-.09-.55-.11-.83,0-.58,0-.87V102.93H278.79V228.18a6.07,6.07,0,0,1,0,1.28,2.57,2.57,0,0,0-.09.77,3.76,3.76,0,0,1-.12.77,8.4,8.4,0,0,1-.14,1.24c-.08.3,0,.61-.12.88s0,.37-.1.54-.06.39-.13.53a6.65,6.65,0,0,0-.19,1c-.11.36-.18.75-.27,1.12a13.79,13.79,0,0,1-.4,1.47c-.28.82-.55,1.64-.85,2.46a25.34,25.34,0,0,1-1.1,2.64,33.23,33.23,0,0,1-1.61,3.07c-.18.28-.34.57-.52.84-.47.7-.93,1.41-1.41,2.1-.27.39-.57.75-.86,1.11s-.46.51-.66.78a19.07,19.07,0,0,1-1.37,1.59c-.35.37-.72.72-1.07,1.08a6.43,6.43,0,0,1-.8.77,6.84,6.84,0,0,0-.64.55l-.7.58a17,17,0,0,1-1.4,1.14c-.29.2-.55.43-.86.61s-.6.41-.91.61c-.76.48-1.5,1-2.3,1.37-1.11.57-2.2,1.16-3.35,1.64-.7.3-1.41.56-2.12.82s-1.43.5-2.17.7l-1.14.35c-.29.09-.61.12-.91.19s-.64.1-.92.18c-.52.16-1,.17-1.56.32-.3.08-.63,0-.95.11a4.24,4.24,0,0,1-.94.11,14.39,14.39,0,0,1-2.17.15,3.86,3.86,0,0,0-.76,0S243.06,263.69,243,263.73Z" transform="translate(-52.16 -22.95)"/><path class="cls-2" d="M278.79,102.93H52.28c0-2.41.2-29.33.33-30s0-1.06.12-1.59.21-2.2.25-2.65c0,0,0-.08,0-.11a4.47,4.47,0,0,0,.32-1.38,10.85,10.85,0,0,0,.38-1.78c.39-.7.36-1.56.82-2.23a15.7,15.7,0,0,1,1.13-2.87c.39-.89.87-1.74,1.33-2.6a4.92,4.92,0,0,1,.48-.74c.36-.5.66-1.05,1-1.56.49-.69,1-1.4,1.52-2.06a7.9,7.9,0,0,0,.65-.78,5.58,5.58,0,0,1,.64-.73,8.54,8.54,0,0,1,.62-.73c.71-.68,1.36-1.42,2.13-2,.58-.48,1.14-1,1.72-1.49A25.57,25.57,0,0,1,67.89,46a32.15,32.15,0,0,1,4-2.41c.89-.44,1.78-.87,2.69-1.28a24.89,24.89,0,0,1,2.73-1,20.85,20.85,0,0,1,2.57-.72c.37-.07.75-.17,1.12-.26s1-.22,1.51-.3a3.35,3.35,0,0,1,1.18-.13c.42-.26.91-.06,1.37-.21a3.82,3.82,0,0,1,1.22,0c.42,0,.81-.14,1.24-.13.91,0,1.83,0,2.74,0V55.81a.65.65,0,0,0-.38.07c-.28.19-.6.33-.89.51s-.81.51-1.2.78a14,14,0,0,0-1.69,1.57,10.24,10.24,0,0,0-1,1.12c-.36.51-.71,1-1,1.56A11.8,11.8,0,0,0,83,63.72a17.11,17.11,0,0,0-.75,2.56,12.73,12.73,0,0,0-.29,2,13.38,13.38,0,0,0,.09,3.16,6.53,6.53,0,0,0,.1.72c.08.23,0,.51.13.76.17.52.26,1.07.44,1.58A15.79,15.79,0,0,0,84,77.19a15.49,15.49,0,0,0,3.66,4.33A14,14,0,0,0,89.79,83a13.22,13.22,0,0,0,3.92,1.53,9.37,9.37,0,0,0,2.15.46A5.14,5.14,0,0,0,97,85c.37,0,.74,0,1.11,0A3.34,3.34,0,0,0,99.21,85c.32-.13.72.05,1.05-.15a15.63,15.63,0,0,0,1.78-.37,4.52,4.52,0,0,0,.91-.33c.3-.12.61-.23.91-.36a7,7,0,0,0,.89-.38c.45-.24.87-.52,1.31-.78a11.94,11.94,0,0,0,2-1.54,15.71,15.71,0,0,0,2.17-2.36q.63-.9,1.17-1.86a13.2,13.2,0,0,0,1-2.49,7.1,7.1,0,0,0,.39-1.54A2.33,2.33,0,0,1,113,72c.13-.27,0-.53.1-.78a4,4,0,0,0,.12-.83c0-.64,0-1.29,0-1.93a7.7,7.7,0,0,1-.12-1.35c-.21-.61-.27-1.25-.46-1.86a17.34,17.34,0,0,0-1-2.84c-.14-.28-.31-.54-.45-.81a10.77,10.77,0,0,0-1.74-2.43c-.46-.51-1-1-1.44-1.45a5.47,5.47,0,0,0-.91-.77,20.47,20.47,0,0,0-2.15-1.3V54.11c0-.54,0-1.09,0-1.63s-.14-1-.13-1.53c0-3.84,0-7.68,0-11.52H226.17V55.69a.72.72,0,0,0-.22,0,12.76,12.76,0,0,0-1.71,1.1c-.61.42-1.14.92-1.7,1.39a12.52,12.52,0,0,0-1.2,1.31c-.2.24-.37.51-.55.76a6,6,0,0,0-.94,1.54c-.5.5-.55,1.23-.93,1.78a15,15,0,0,0-.7,2.63,7.73,7.73,0,0,0-.33,2,17,17,0,0,0,0,1.75c-.05.58.18,1.13.12,1.71v.06c.25.59.18,1.26.47,1.85a5,5,0,0,0,.38,1.36,7.86,7.86,0,0,0,.56,1.35,12.76,12.76,0,0,0,2.08,3.28A15.22,15.22,0,0,0,224,81.94a21.21,21.21,0,0,0,2,1.3,12.07,12.07,0,0,0,2.08.92,5.75,5.75,0,0,0,1.58.41c.21.19.49.14.72.23a1.76,1.76,0,0,0,.71.11c.28,0,.51.14.77.13a18.66,18.66,0,0,0,4.35-.23c.29-.07.6,0,.88-.13s.61-.15.89-.25A18.26,18.26,0,0,0,241.31,83,19.08,19.08,0,0,0,244,81a21.74,21.74,0,0,0,1.75-1.84,7.4,7.4,0,0,0,.53-.72c.37-.52.7-1.06,1-1.62a4.15,4.15,0,0,0,.47-.91c.1-.34.3-.62.4-1a12.06,12.06,0,0,0,.68-2.64c.23-.19.09-.44.12-.65a3.28,3.28,0,0,0,.13-.72,11.2,11.2,0,0,1,0-1.16c0-.43,0-.86,0-1.29s-.07-.86-.11-1.3a.44.44,0,0,0,0-.16,8,8,0,0,1-.22-1c-.1-.4-.18-.81-.31-1.21a21,21,0,0,0-.81-2.12,13.55,13.55,0,0,0-.93-1.72c-.41-.67-.91-1.27-1.38-1.89a26.39,26.39,0,0,0-2-2,2.94,2.94,0,0,1-1-.64,8,8,0,0,1-1-.63.58.58,0,0,0-.52-.13V52.07c0-1.23.09-2.47,0-3.68s-.07-2.47-.09-3.7c0-1.75,0-3.5,0-5.26.3,0,.59.06.89.1a7.49,7.49,0,0,0,1.57,0c.54,0,1.06.12,1.59.13s1.1.08,1.65.12h0c.58.22,1.21.15,1.79.34.3.09.65,0,.94.14s.53.08.8.18a10.06,10.06,0,0,0,1.53.38c.56.12,1.09.29,1.63.46.81.25,1.61.52,2.4.82s1.81.73,2.69,1.13,1.54.79,2.3,1.21c.54.3,1.09.6,1.6.94a32.43,32.43,0,0,1,3,2.16,31.15,31.15,0,0,1,2.45,2.13,31.48,31.48,0,0,1,2.4,2.5c.29.38.67.69.94,1.08.64.92,1.35,1.8,1.95,2.75s1,1.63,1.48,2.49a35.87,35.87,0,0,1,1.79,3.82c.22.58.44,1.18.67,1.76a13.68,13.68,0,0,1,.47,1.5,5.82,5.82,0,0,1,.25.84,5.94,5.94,0,0,0,.21.72,4.76,4.76,0,0,0,.14.77,7.77,7.77,0,0,1,.24,1c.1.34.14.68.22,1a6.67,6.67,0,0,0,.14.82,2.56,2.56,0,0,1,.09.66,4.9,4.9,0,0,1,.11.65c0,.82,0,1.64,0,2.46a19.49,19.49,0,0,0,.09,2.41,18.18,18.18,0,0,1,0,2.45Z" transform="translate(-52.16 -22.95)"/><path class="cls-1" d="M234.12,23s.1.11.15.11a5.54,5.54,0,0,1,3.22,1.11,6.6,6.6,0,0,1,2.4,2.85,12.08,12.08,0,0,1,.56,1.7c.09.37,0,.75.11,1.12a19.73,19.73,0,0,1,.1,3.17c0,1.07,0,2.14,0,3.21v3.21c0,1.76,0,3.51,0,5.26,0,1.23,0,2.46.09,3.7s0,2.45,0,3.68v3.74a.7.7,0,0,0-.11.47v4.45c0,1.5,0,3,0,4.5s-.13,2.93-.13,4.39a3.89,3.89,0,0,1-.13,1.18,10.4,10.4,0,0,1-1,2.25,6.72,6.72,0,0,1-1,1.15,6,6,0,0,1-2.27,1.45,4.29,4.29,0,0,1-1.24.36c-.47,0-.94.13-1.41.14a1.87,1.87,0,0,1-.41,0c-.14,0-.28-.1-.42-.11a3.87,3.87,0,0,1-.89-.11,8.7,8.7,0,0,1-2-.8,7.86,7.86,0,0,1-1.56-1.32,5.74,5.74,0,0,1-1.4-2.23,5.15,5.15,0,0,1-.38-1.35c0-.8-.12-1.61-.13-2.41,0-3.84,0-7.67,0-11.51,0-.18,0-.35,0-.53s-.07-.06-.11-.09V39.43c-.07-.76.17-1.51.12-2.28s0-1.6,0-2.4V32.42c0-.78-.05-1.57,0-2.34a9.85,9.85,0,0,1,.29-1.68,8.73,8.73,0,0,1,.63-1.73,5.11,5.11,0,0,1,1-1.35,7.87,7.87,0,0,1,1.32-1.2,12.19,12.19,0,0,1,1.4-.7,4.42,4.42,0,0,1,1.72-.36s.07-.07.1-.11Z" transform="translate(-52.16 -22.95)"/><path class="cls-1" d="M90.28,39.55c0-.86,0-1.71,0-2.57,0-.57.17-1.12.13-1.7s0-1.13,0-1.7V31.83a10.58,10.58,0,0,1,0-1.69,13.07,13.07,0,0,1,.29-1.86,9.28,9.28,0,0,1,.68-1.7,5.37,5.37,0,0,1,.91-1.27,8.31,8.31,0,0,1,1.32-1.19,10.76,10.76,0,0,1,1.4-.7,4.41,4.41,0,0,1,1.84-.36S96.92,23,97,23h1.4s.06.11.09.11a6.3,6.3,0,0,1,2.51.71,5,5,0,0,1,1.36,1,12.84,12.84,0,0,1,1.1,1.24,5.11,5.11,0,0,1,.79,1.54,4.67,4.67,0,0,0,.23.66c.15.35,0,.74.24,1.08a6.85,6.85,0,0,0,.12,1.35q0,4.41,0,8.82c0,3.84,0,7.68,0,11.52,0,.51.17,1,.13,1.53s0,1.09,0,1.63v1.58c-.23,0-.11.22-.11.33,0,1.49,0,3,0,4.49s0,3,0,4.44.07,3-.09,4.45a11.62,11.62,0,0,1-.31,1.58,7,7,0,0,1-1,2.15,6.51,6.51,0,0,1-1.61,1.66,6,6,0,0,1-1.53.83,8.28,8.28,0,0,1-1.76.42h-2a1.27,1.27,0,0,1-.34,0l-1-.32a6.61,6.61,0,0,1-1.32-.62,8.11,8.11,0,0,1-1.51-1.29,4.41,4.41,0,0,1-.93-1.31,10.7,10.7,0,0,1-.84-2.68c0-.37-.13-.7-.13-1.07q0-6,0-11.91a4.69,4.69,0,0,0,0-.53,2.66,2.66,0,0,0-.11-.47Z" transform="translate(-52.16 -22.95)"/><path class="cls-1" d="M52.28,95.68h-.12v-6.9c.19,0,.11.18.11.27,0,1.16,0,2.33,0,3.49Z" transform="translate(-52.16 -22.95)"/><path class="cls-1" d="M52.16,79.78h.12c0,1.2,0,2.4,0,3.59,0,.1.08.25-.11.27Z" transform="translate(-52.16 -22.95)"/><text class="cls-3" transform="translate(71.97 209.42)">17</text><text class="cls-4" transform="translate(52.76 120.23)"><tspan class="cls-5">D</tspan><tspan class="cls-6" x="15.51" y="0">E</tspan><tspan class="cls-7" x="28.97" y="0">C</tspan><tspan class="cls-8" x="44.48" y="0">EM</tspan><tspan class="cls-5" x="77.71" y="0">B</tspan><tspan x="93.17" y="0">ER</tspan></text></svg>