<?xml version="1.0" encoding="utf-8"?>
<!-- Generator: Adobe Illustrator 23.0.2, SVG Export Plug-In . SVG Version: 6.00 Build 0)  -->
<svg version="1.1" id="Layer_1" xmlns="http://www.w3.org/2000/svg" xmlns:xlink="http://www.w3.org/1999/xlink" x="0px" y="0px"
	 viewBox="0 0 226.7 240.8" style="enable-background:new 0 0 226.7 240.8;" xml:space="preserve">
<style type="text/css">
	.st0{fill:#D3EAF4;}
	.st1{fill:#C70032;}
	.st2{fill:#333333;}
	.st3{font-family:'D-DIN-Bold';}
	.st4{font-size:100.69px;}
	.st5{font-size:26.29px;}
</style>
<title>calendar</title>
<path class="st0" d="M190.8,240.8H35.1c0,0-0.1-0.1-0.1-0.1h-0.7c-0.2,0-0.5,0-0.8,0c-0.2-0.1-0.4-0.1-0.7-0.1
	c-0.2,0-0.5-0.1-0.7-0.1c-0.2,0-0.5,0.1-0.7-0.1s-0.5,0-0.7-0.2c-0.5,0-1-0.1-1.4-0.2c-0.5-0.1-0.9-0.2-1.4-0.2
	c-0.3-0.1-0.7-0.3-1-0.4c-0.4-0.1-0.8-0.2-1.1-0.3s-0.9-0.3-1.3-0.4s-0.9-0.3-1.3-0.5c-0.9-0.4-1.8-0.8-2.6-1.2
	c-0.7-0.3-1.4-0.7-2.1-1.1c-0.9-0.6-1.9-1.2-2.8-1.8s-1.8-1.3-2.7-2c-0.6-0.5-1.2-1.1-1.7-1.6s-1-1-1.5-1.5
	c-0.1-0.1-0.2-0.2-0.2-0.2c-0.4-0.7-1-1.2-1.5-1.8s-0.9-1.1-1.2-1.6c-0.8-1.1-1.5-2.2-2.1-3.4c-0.6-1-1-2.1-1.5-3.1
	c-0.1-0.3-0.3-0.6-0.4-0.8c-0.2-0.7-0.5-1.3-0.7-1.9s-0.4-1.5-0.6-2.2c-0.1-0.5-0.2-1.1-0.4-1.6c-0.1-0.4-0.2-0.8-0.3-1.2
	c0-0.4-0.1-0.7-0.1-1.1c-0.1-0.2,0-0.5-0.1-0.7c-0.1-0.3-0.1-0.5-0.1-0.8c0,0,0-0.1,0-0.2c-0.2-0.2-0.1-0.6-0.1-0.8
	s-0.1-0.6-0.1-0.8s0-0.6,0-0.9V80h226.5v125.2c0,0.4,0,0.9,0,1.3c-0.1,0.3-0.1,0.5-0.1,0.8c0,0.3-0.1,0.5-0.1,0.8
	c0,0.4-0.1,0.8-0.1,1.2c-0.1,0.3,0,0.6-0.1,0.9s0,0.4-0.1,0.5s-0.1,0.4-0.1,0.5c-0.1,0.3-0.2,0.7-0.2,1c-0.1,0.4-0.2,0.8-0.3,1.1
	c-0.1,0.5-0.2,1-0.4,1.5c-0.3,0.8-0.5,1.6-0.9,2.5c-0.3,0.9-0.7,1.8-1.1,2.6c-0.5,1.1-1,2.1-1.6,3.1c-0.2,0.3-0.3,0.6-0.5,0.8
	c-0.5,0.7-0.9,1.4-1.4,2.1c-0.3,0.4-0.6,0.8-0.9,1.1s-0.5,0.5-0.7,0.8c-0.4,0.6-0.9,1.1-1.4,1.6c-0.4,0.4-0.7,0.7-1.1,1.1
	c-0.2,0.3-0.5,0.5-0.8,0.8c-0.2,0.2-0.4,0.4-0.6,0.6l-0.7,0.6c-0.4,0.4-0.9,0.8-1.4,1.1c-0.3,0.2-0.5,0.4-0.9,0.6s-0.6,0.4-0.9,0.6
	c-0.8,0.5-1.5,1-2.3,1.4c-1.1,0.6-2.2,1.2-3.4,1.6c-0.7,0.3-1.4,0.6-2.1,0.8s-1.4,0.5-2.2,0.7l-1.1,0.4c-0.3,0.1-0.6,0.1-0.9,0.2
	s-0.6,0.1-0.9,0.2c-0.5,0.2-1,0.2-1.6,0.3c-0.3,0.1-0.6,0-0.9,0.1c-0.3,0.1-0.6,0.1-0.9,0.1c-0.7,0.1-1.4,0.2-2.2,0.1
	c-0.3,0-0.5,0-0.8,0C191,240.7,190.9,240.7,190.8,240.8z"/>
<path class="st1" d="M226.6,80H0.1c0-2.4,0.2-29.3,0.3-30s0-1.1,0.1-1.6s0.2-2.2,0.2-2.7c0,0,0-0.1,0-0.1c0.2-0.4,0.3-0.9,0.3-1.4
	c0.2-0.6,0.3-1.2,0.4-1.8c0.4-0.7,0.4-1.6,0.8-2.2c0.3-1,0.7-2,1.1-2.9c0.4-0.9,0.9-1.7,1.3-2.6c0.1-0.3,0.3-0.5,0.5-0.7
	c0.4-0.5,0.7-1,1-1.6c0.5-0.7,1-1.4,1.5-2.1c0.2-0.2,0.5-0.5,0.7-0.8c0.2-0.3,0.4-0.5,0.6-0.7c0.2-0.3,0.4-0.5,0.6-0.7
	c0.7-0.7,1.4-1.4,2.1-2c0.6-0.5,1.1-1,1.7-1.5c0.7-0.6,1.4-1.1,2.2-1.6c1.3-0.9,2.6-1.7,4-2.4c0.9-0.4,1.8-0.9,2.7-1.3
	c0.9-0.4,1.8-0.7,2.7-1c0.8-0.3,1.7-0.5,2.6-0.7c0.4-0.1,0.8-0.2,1.1-0.3s1-0.2,1.5-0.3c0.4-0.1,0.8-0.2,1.2-0.1
	c0.4-0.3,0.9-0.1,1.4-0.2c0.4-0.1,0.8-0.1,1.2,0c0.4,0,0.8-0.1,1.2-0.1c0.9,0,1.8,0,2.7,0v16.2c-0.1,0-0.3,0-0.4,0.1
	c-0.3,0.2-0.6,0.3-0.9,0.5s-0.8,0.5-1.2,0.8c-0.6,0.5-1.2,1-1.7,1.6c-0.4,0.3-0.7,0.7-1,1.1c-0.4,0.5-0.7,1-1,1.6
	c-0.4,0.7-0.8,1.5-1.1,2.3c-0.3,0.8-0.6,1.7-0.8,2.6c-0.1,0.7-0.2,1.3-0.3,2c-0.1,1.1-0.1,2.1,0.1,3.2c0,0.2,0.1,0.5,0.1,0.7
	c0.1,0.2,0,0.5,0.1,0.8c0.2,0.5,0.3,1.1,0.4,1.6c0.3,0.9,0.8,1.8,1.3,2.7c0.9,1.7,2.2,3.1,3.7,4.3c0.7,0.6,1.4,1.1,2.1,1.5
	c1.2,0.7,2.5,1.2,3.9,1.5c0.7,0.2,1.4,0.4,2.2,0.5c0.4,0,0.8,0,1.1,0c0.4,0,0.7,0,1.1,0c0.4,0.1,0.7,0.1,1.1,0
	c0.3-0.1,0.7,0.1,1.1-0.2c0.6-0.1,1.2-0.2,1.8-0.4c0.3-0.1,0.6-0.2,0.9-0.3c0.3-0.1,0.6-0.2,0.9-0.4c0.3-0.1,0.6-0.2,0.9-0.4
	c0.4-0.2,0.9-0.5,1.3-0.8c0.7-0.4,1.4-1,2-1.5c0.8-0.7,1.5-1.5,2.2-2.4c0.4-0.6,0.8-1.2,1.2-1.9c0.4-0.8,0.8-1.6,1-2.5
	c0.2-0.5,0.3-1,0.4-1.5c0-0.3,0.1-0.6,0.2-0.8c0.1-0.3,0-0.5,0.1-0.8c0.1-0.3,0.1-0.5,0.1-0.8c0-0.6,0-1.3,0-1.9
	c-0.1-0.4-0.1-0.9-0.1-1.3c-0.2-0.6-0.3-1.2-0.5-1.9c-0.3-1-0.6-1.9-1-2.8c-0.1-0.3-0.3-0.5-0.4-0.8c-0.5-0.9-1-1.7-1.7-2.4
	c-0.5-0.5-1-1-1.4-1.5c-0.3-0.3-0.6-0.5-0.9-0.8c-0.7-0.5-1.4-0.9-2.2-1.3v-1.5c0-0.5,0-1.1,0-1.6s-0.1-1-0.1-1.5
	c0-3.8,0-7.7,0-11.5H174v16.3c-0.1,0-0.1,0-0.2,0c-0.6,0.3-1.2,0.7-1.7,1.1c-0.6,0.4-1.1,0.9-1.7,1.4c-0.4,0.4-0.8,0.8-1.2,1.3
	c-0.2,0.2-0.4,0.5-0.6,0.8c-0.4,0.5-0.7,1-0.9,1.5c-0.5,0.5-0.6,1.2-0.9,1.8c-0.3,0.9-0.5,1.7-0.7,2.6c-0.2,0.6-0.3,1.3-0.3,2
	c0,0.6,0,1.2,0,1.8c-0.1,0.6,0.2,1.1,0.1,1.7v0.1c0.2,0.6,0.2,1.3,0.5,1.8c0.1,0.5,0.2,0.9,0.4,1.4c0.1,0.5,0.3,0.9,0.6,1.3
	c0.5,1.2,1.2,2.3,2.1,3.3c0.7,0.9,1.6,1.7,2.5,2.4c0.6,0.5,1.3,0.9,2,1.3c0.7,0.4,1.4,0.7,2.1,0.9c0.5,0.2,1,0.3,1.6,0.4
	c0.2,0.2,0.5,0.1,0.7,0.2c0.2,0.1,0.5,0.1,0.7,0.1c0.3,0,0.5,0.1,0.8,0.1c1.5,0.1,2.9,0,4.4-0.2c0.3-0.1,0.6,0,0.9-0.1
	s0.6-0.2,0.9-0.2c1.2-0.4,2.3-0.8,3.3-1.4c1-0.6,1.9-1.3,2.7-2c0.6-0.6,1.2-1.2,1.8-1.8c0.2-0.2,0.4-0.5,0.5-0.7
	c0.4-0.5,0.7-1.1,1-1.6c0.2-0.3,0.4-0.6,0.5-0.9c0.1-0.3,0.3-0.6,0.4-1c0.3-0.9,0.6-1.7,0.7-2.6c0.2-0.2,0.1-0.4,0.1-0.7
	c0.1-0.2,0.1-0.5,0.1-0.7c0-0.4,0-0.8,0-1.2c0-0.4,0-0.9,0-1.3s-0.1-0.9-0.1-1.3c0-0.1,0-0.1,0-0.2c-0.1-0.3-0.2-0.7-0.2-1
	c-0.1-0.4-0.2-0.8-0.3-1.2c-0.2-0.7-0.5-1.4-0.8-2.1c-0.3-0.6-0.6-1.2-0.9-1.7c-0.4-0.7-0.9-1.3-1.4-1.9c-0.6-0.7-1.3-1.4-2-2
	c-0.4-0.1-0.7-0.4-1-0.6c-0.3-0.2-0.7-0.4-1-0.6c-0.1-0.1-0.3-0.2-0.5-0.1v-3.6c0-1.2,0.1-2.5,0-3.7s-0.1-2.5-0.1-3.7
	c0-1.8,0-3.5,0-5.3c0.3,0,0.6,0.1,0.9,0.1c0.5,0.1,1,0.1,1.6,0c0.5,0,1.1,0.1,1.6,0.1s1.1,0.1,1.6,0.1l0,0c0.6,0.2,1.2,0.2,1.8,0.3
	c0.3,0.1,0.6,0,0.9,0.1s0.5,0.1,0.8,0.2c0.5,0.2,1,0.3,1.5,0.4c0.6,0.1,1.1,0.3,1.6,0.5c0.8,0.2,1.6,0.5,2.4,0.8s1.8,0.7,2.7,1.1
	s1.5,0.8,2.3,1.2c0.5,0.3,1.1,0.6,1.6,0.9c1,0.7,2,1.4,3,2.2c0.9,0.7,1.7,1.4,2.5,2.1c0.8,0.8,1.6,1.6,2.4,2.5
	c0.3,0.4,0.7,0.7,0.9,1.1c0.6,0.9,1.4,1.8,2,2.8s1,1.6,1.5,2.5c0.7,1.2,1.3,2.5,1.8,3.8c0.2,0.6,0.4,1.2,0.7,1.8
	c0.2,0.5,0.3,1,0.5,1.5c0.1,0.3,0.2,0.6,0.2,0.8c0.1,0.2,0.1,0.5,0.2,0.7c0,0.3,0.1,0.5,0.1,0.8c0.1,0.3,0.2,0.7,0.2,1
	c0.1,0.3,0.1,0.7,0.2,1c0,0.3,0.1,0.5,0.1,0.8c0.1,0.2,0.1,0.4,0.1,0.7c0.1,0.2,0.1,0.4,0.1,0.7c0,0.8,0,1.6,0,2.5
	c0,0.8,0,1.6,0.1,2.4c0.1,0.8,0.1,1.6,0,2.4L226.6,80z"/>
<path class="st0" d="M182,0c0,0,0.1,0.1,0.1,0.1c1.2,0,2.3,0.4,3.2,1.1c1.1,0.7,1.9,1.7,2.4,2.9c0.2,0.6,0.4,1.1,0.6,1.7
	c0.1,0.4,0,0.8,0.1,1.1c0.1,1.1,0.2,2.1,0.1,3.2c0,1.1,0,2.1,0,3.2v3.2c0,1.8,0,3.5,0,5.3c0,1.2,0,2.5,0.1,3.7s0,2.5,0,3.7v3.7
	c-0.1,0.1-0.1,0.3-0.1,0.5v4.5c0,1.5,0,3,0,4.5c0,1.5-0.1,2.9-0.1,4.4c0,0.4,0,0.8-0.1,1.2c-0.2,0.8-0.6,1.5-1,2.2
	c-0.3,0.4-0.6,0.8-1,1.2c-0.6,0.6-1.4,1.1-2.3,1.4c-0.4,0.2-0.8,0.3-1.2,0.4c-0.5,0-0.9,0.1-1.4,0.1c-0.1,0-0.3,0-0.4,0
	c-0.1,0-0.3-0.1-0.4-0.1c-0.3,0-0.6,0-0.9-0.1c-0.7-0.2-1.4-0.5-2-0.8c-0.6-0.4-1.1-0.8-1.6-1.3c-0.6-0.6-1.1-1.4-1.4-2.2
	c-0.2-0.4-0.3-0.9-0.4-1.3c0-0.8-0.1-1.6-0.1-2.4c0-3.8,0-7.7,0-11.5c0-0.2,0-0.3,0-0.5s-0.1-0.1-0.1-0.1V16.5
	c-0.1-0.8,0.2-1.5,0.1-2.3s0-1.6,0-2.4V9.5c0-0.8-0.1-1.6,0-2.3c0-0.6,0.1-1.1,0.3-1.7c0.1-0.6,0.4-1.2,0.6-1.7c0.3-0.5,0.6-1,1-1.4
	c0.4-0.4,0.8-0.9,1.3-1.2c0.5-0.3,0.9-0.5,1.4-0.7c0.5-0.2,1.1-0.4,1.7-0.4c0,0,0.1-0.1,0.1-0.1L182,0z"/>
<path class="st0" d="M38.1,16.6c0-0.9,0-1.7,0-2.6c0-0.6,0.2-1.1,0.1-1.7s0-1.1,0-1.7V8.9c0-0.6,0-1.1,0-1.7
	c0.1-0.6,0.1-1.2,0.3-1.9c0.2-0.6,0.4-1.2,0.7-1.7c0.2-0.5,0.5-0.9,0.9-1.3c0.4-0.4,0.8-0.8,1.3-1.2c0.4-0.3,0.9-0.5,1.4-0.7
	c0.6-0.3,1.2-0.4,1.8-0.4c0,0,0.1-0.1,0.2-0.1h1.4c0,0,0.1,0.1,0.1,0.1c0.9,0.1,1.7,0.3,2.5,0.7c0.5,0.3,1,0.6,1.4,1
	c0.4,0.4,0.8,0.8,1.1,1.2c0.3,0.5,0.6,1,0.8,1.5c0.1,0.2,0.1,0.4,0.2,0.7c0.2,0.4,0,0.7,0.2,1.1c0,0.5,0,0.9,0.1,1.4
	c0,2.9,0,5.9,0,8.8c0,3.8,0,7.7,0,11.5c0,0.5,0.2,1,0.1,1.5s0,1.1,0,1.6v1.6c-0.2,0-0.1,0.2-0.1,0.3c0,1.5,0,3,0,4.5s0,3,0,4.4
	s0.1,3-0.1,4.4c-0.1,0.5-0.2,1.1-0.3,1.6c-0.2,0.8-0.5,1.5-1,2.2c-0.4,0.6-1,1.2-1.6,1.7c-0.5,0.3-1,0.6-1.5,0.8
	c-0.6,0.2-1.2,0.3-1.8,0.4h-2c-0.1,0-0.2,0-0.3,0l-1-0.3c-0.5-0.2-0.9-0.4-1.3-0.6c-0.6-0.4-1.1-0.8-1.5-1.3
	c-0.4-0.4-0.7-0.8-0.9-1.3c-0.4-0.9-0.7-1.8-0.8-2.7c0-0.4-0.1-0.7-0.1-1.1c0-4,0-8,0-11.9c0-0.2,0-0.4,0-0.5c0-0.2-0.1-0.3-0.1-0.5
	L38.1,16.6z"/>
<path class="st0" d="M0.1,72.7H0v-6.9c0.2,0,0.1,0.2,0.1,0.3c0,1.2,0,2.3,0,3.5L0.1,72.7z"/>
<path class="st0" d="M0,56.8h0.1c0,1.2,0,2.4,0,3.6c0,0.1,0.1,0.2-0.1,0.3L0,56.8z"/>
<text transform="matrix(1 0 0 1 71.97 209.42)" class="st2 st3 st4">17</text>
<text transform="matrix(1 0 0 1 52.76 120.23)" class="st2 st3 st5">D</text>
<text transform="matrix(1 0 0 1 68.27 120.23)" class="st2 st3 st5">E</text>
<text transform="matrix(1 0 0 1 81.73 120.23)" class="st2 st3 st5">C</text>
<text transform="matrix(1 0 0 1 97.24 120.23)" class="st2 st3 st5">EM</text>
<text transform="matrix(1 0 0 1 130.47 120.23)" class="st2 st3 st5">B</text>
<text transform="matrix(1 0 0 1 145.93 120.23)" class="st2 st3 st5">ER</text>
</svg>
