<svg id="Layer_1" data-name="Layer 1" xmlns="http://www.w3.org/2000/svg" viewBox="0 0 434.85 835.83"><defs><style>.cls-1{fill:#f0b6af;}.cls-2{fill:#d1e9c7;}</style></defs><title>colombia</title><path class="cls-1" d="M261.37,193.84c-3.67,5.76-2.63,9.71,3.1,11.66a11.86,11.86,0,0,0,2.07-2.85c2.43-7,4.91-14,7-21.08,1-3.53,3.33-5.71,6.61-4,7.68,3.91,15.58,2.32,23.37,1.48,2.3-.24,4.48-2.66,6.47-4.36a127.5,127.5,0,0,0,9.95-9.2A46.15,46.15,0,0,1,337.08,154c7.09-2.76,11-8.63,13-15.77.95-3.46,1.89-6.56,6.36-6.79.89,0,1.64-1.61,2.55-2.35,2.64-2.12,5.05-4.81,8.06-6.14,5.95-2.62,13.29,1.26,15.51,7.54.44,1.27,1,2.49,1.4,3.78.83,2.93.29,5.24-1.49,8.09-5.4,8.6-14.07,11.38-22.84,13.94a14.11,14.11,0,0,0-9.71,8.55c-1.15,2.7-2.51,5.3-3.7,8A31.24,31.24,0,0,1,335.44,186c-4.94,3.6-8.48,9.75-11.37,15.42-5.13,10.08-9.4,20.62-11.12,32-.84,5.53-1.43,11.16-3,16.49A102,102,0,0,1,303.69,265c-2.46,5.19-5.4,10.14-7.89,15.31a5.66,5.66,0,0,0-.08,4.35c.31.65,2.59.82,3.77.47,2.64-.77,5.14-2,8.13-3.22a14.6,14.6,0,0,0,1.32,3.59c.69,1,1.9,2.3,2.86,2.29,3.18-.07,3.44,1.75,3.7,4.19.65,6.05.94,12.23,2.54,18,1.13,4.08,4.21,7.6,6.33,11.42,3.63,6.53,4.64,13.07,1.74,20.41-1.92,4.86-2.54,10.31-3.22,15.57a66.69,66.69,0,0,0-.1,11.57c.16,3.21,2.16,5.07,5.29,5.69,2.57.5,3.93,2,4.48,4.61a76.85,76.85,0,0,0,2.51,8.77c1.75,5.15,6.45,7.2,11.79,6.61a55.35,55.35,0,0,1,16.21.25c6,1.15,11.49,1.23,16.49-2.18s9-1.68,13.5.92a32.56,32.56,0,0,0,10.44,3.53c2.29.41,3.71,1,4.83,3.07,6.44,12.07,13,24.07,19.51,36.12,1,1.85,2.75,1.76,4.23,2.47,5.3,2.54,8.32-.55,12.06-2.85a6,6,0,0,1,4.62-.2c8.29,3.22,16.62,2,24.85.16a89.34,89.34,0,0,0,13.28-4.63c4.39-1.76,11.82,2,12.79,6.65s0,8.24-2.59,12.29c-2.43,3.84-3.63,8.68-4.47,13.25a23.37,23.37,0,0,1-4.4,10.58,16.13,16.13,0,0,0-2.82,8c-.71,8.09-.9,16.23-1.32,24.35-.3,5.74-2.25,11.5.55,17.2.6,1.22.45,2.87.44,4.32,0,9.78,2.78,19,6,28,1.32,3.77,4.21,7,6.35,10.48.44.73.63,1.61,1.11,2.31,3.58,5.26,2.67,9.59-1.75,14.17a162.5,162.5,0,0,0-13.64,16.72c-1.39,1.9-1.49,4.74-2.19,7.15l1.12.53c.88-.31,1.84-1,2.61-.86,2.08.46,4.48.83,6,2.11,1.8,1.52,2.73,4,4.18,6,2.88,3.93,5.88,7.77,8.74,11.71a6.33,6.33,0,0,1,.68,2.4c.91,4.34,1.77,8.7,2.7,13,1.72,8.06,3.53,16.09,5.23,24.15,1.08,5.1,2,10.22,3,15.34.73,3.81-1.45,4.94-5,5.08,0-3.47-.22-6.88.05-10.25a44.27,44.27,0,0,0-5-24.77c-1.36-2.59-2.28-5.4-3.41-8.11-1.7-4.09-5.65-5.29-8.77-2.05s-5.61,7.32-8.32,11.06c-.72,1-1,2.39-1.88,3.12-1.34,1.1-3,2.32-4.59,2.44-.85.06-2.05-2-2.75-3.29-1.1-2-1.64-4.39-2.91-6.28-1.87-2.81-4.12-2.57-4.84.63s-.56,6.77-.81,10.66h-2.7c-10.4,0-20.8.14-31.2-.08-3.19-.07-6.36-1.6-9.53-1.59-3.64,0-7.27.95-10.9,1.54-3.36.55-4.1,2.59-4,5.85.23,8.69,0,17.38,0,26.07,0,1.06.14,2.13.17,2.55,5.35.78,10.29,1.52,15.23,2.21a3.37,3.37,0,0,0,1.79-.08c3-1.31,3.86.87,4.93,2.84,2.65,4.85,2.36,10,2,16.45-2.64-1.22-4.74-2.29-6.91-3.17-1.65-.68-3.61-1.89-5.07-1.5-2.73.72-5.14,2.58-7.79,3.7a33.26,33.26,0,0,1-7.51,2.43c-3.18.5-5,1.29-4.9,5.16.24,10,.09,20.07-.09,30.11-.07,3.61.63,6.79,3.19,9.41,3.71,3.81,7.81,7.32,11,11.49,1.68,2.18,2.92,5.72,2.47,8.31-1,5.54,1,10.2,3.28,14.58a30.43,30.43,0,0,1,3.42,18.34c-1.49,12-2.79,24-4.21,35.92-1.37,11.61-2.85,23.21-4.19,34.82-1.12,9.81-2.05,19.63-3.14,29.44-1.36,12.23-2.8,24.44-4.17,36.67-.24,2.12-.33,4.25-.49,6.38l-1.31.56c-2.22-3.57-4.47-7.12-6.65-10.72a60.3,60.3,0,0,0-3.22-5.6c-1.69-2.19-3.88-2.36-6.05-.49-3.37,2.9-5.34-.68-7.62-1.92-.65-.36-.62-3.06-.07-4.33,6.53-15.27,13.23-30.46,19.84-45.69,2.12-4.88,1.28-6.27-3.15-9a156.58,156.58,0,0,1-12.81-9.46q-5.83-4.53-11.45-9.33c-4.35-3.71-8.2-3.76-12.33,0-4.55,4.19-7.45,4.11-12,0a66.69,66.69,0,0,0-6.21-4.39c-3.12-2.21-5.64-1.68-7.66,1.58-4.07,6.55-10.64,9.06-17.7,10.3-1.84.33-4.1-1-6-1.93-2.25-1.08-4.1-1.53-6.44.08-3,2.08-5.72.42-9.08-1.13-6.47-3-6.49-7-5.46-13.22.72-4.32-1.54-9.24-3-13.74-.35-1.13-2.5-2.19-3.95-2.4-4.58-.67-7.39-3.32-6.62-7.81,1.24-7.27-3.58-12.31-6-18.21a4.25,4.25,0,0,0-3.15-2.28c-5.19.21-6.24-4.87-9.51-7-1.57-1-2.82-2.84-4.49-3.33-4.59-1.35-6.24-4.58-7.06-8.84-1.43-7.31-2.9-14.65-8.22-20.39-1.56-1.68-3.26-3.24-4.91-4.83-.26-.25-.82-.37-.87-.63-1.74-7.83-11.27-6.65-14.74-12.84-1.72-3.06-4.08-2.43-7.9,1-2-1.36-4.11-2.69-6.1-4.23-2.78-2.15-5.42-4.13-9.11-5-2.33-.56-4.53-3.25-6-5.5-2.91-4.46-6-8.46-10.82-11.12-4.4-2.44-8.74-.4-9.1,4.63-.31,4.36-1.82,5.13-6.17,3.79-1.61-.49-3.6.36-5.3,0-2.67-.54-5.59-1.06-7.79-2.52-2.75-1.82-5.29-3.07-8.7-3s-6-1.61-6.39-5.53a34.9,34.9,0,0,0-1-6.47c-.36-1.22-1.34-2.8-2.4-3.16-3.05-1-4.38-3.16-5.31-6-.38-1.15-1.7-2.86-2.58-2.85-8,.1-13.4-4.79-18.91-9.34a150.49,150.49,0,0,1-13.94-12.89c-3-3.23-5.2-7.23-7.76-10.88a28.33,28.33,0,0,1-2.08-3c-.82-1.59-2.19-3.39-2-4.9a9.22,9.22,0,0,1,6.4-7.38c1.15-.4,2.88.91,4.35,1.43L95.41,659c.77-4.91,1.2-8.93-.3-13.62-1.92-6-2-12.76,1.78-18.58,1.29-2,2.77-4.23,6-2.89.49.2,1.38-.68,2.13-.94,1-.35,2.21-1.1,3-.79,5.05,2,7.46-1.61,9.93-4.66,2.77-3.42,5.16-7.16,7.72-10.75,3.73-5.22,3.73-5.22,2.92-12.14,5.27-.12,5.39-4.86,7.31-8.25,6.09-10.81,10.59-22.3,15-33.84a18.5,18.5,0,0,0,.76-2.43c.07-.31-.14-.68-.4-1.8l-5,2.31c-3.41-2.09,2.68-7.56-2.82-9.27l-2.36,3.52c-2.12-2.68-2-5.25-1.07-8.06,1.09-3.23,1-3.32-1.47-5.77,4.59-4.78,5.88-10.91,6-17.31.09-3.57-.38-7.16-.59-10.74-.24-4.37-.81-8.75-.62-13.09.34-7.83,1.48-15.71-4.51-21.57,3.14-3.85,6.16-7.31,8.84-11a5.23,5.23,0,0,0,.42-4.05c-1.76-5.57-3.76-11.06-5.74-16.56-.79-2.21-2.1-4.41,1.23-5.73a1.67,1.67,0,0,0,.75-1.14c1-5.83,3-11.62.73-17.59-.73-1.88-.95-4.08-3.83-4.21-.59,0-1.23-1.62-1.63-2.58-2.39-5.69-4.72-11.41-7.08-17.12a6.75,6.75,0,0,0-.8-1.64c-4.71-5.94-1.23-10.91,1.51-16.25,1.37-2.66,1.51-6,2.21-9,.36.7.94,1.69,1.39,2.73,1.56,3.61,3,4,5.92,1.29a55,55,0,0,0,5.42-5.48,6.27,6.27,0,0,0,1.24-3.59c.09-3.43,1.19-6.23,4.14-8.09a4.38,4.38,0,0,0,2.08-5.61c-2.55-7.84-5.24-15.64-7.45-23.58-.51-1.8.7-4.08,1.19-6.54,4.08,6,7.73,11.25,11.16,16.6a43.53,43.53,0,0,1,4.67,8.94c.45,1.31-1.34,3.25-1.34,4.9s.58,3.79,1.71,4.65c.88.68,3.5.24,4.46-.65a7.18,7.18,0,0,0,2.09-4.9c-.2-6.93-.79-13.85-1.28-20.77a6.16,6.16,0,0,0-.55-2.1c-2.36-5.19-2-4.72,2.24-8.15a166.23,166.23,0,0,0,18.84-17.32c2.8-3.08,3.33-8.12,5.62-11.82,2-3.23,4.89-6,7.66-8.62.72-.68,2.49-.48,3.75-.36,6.27.6,9.79-2.9,8.85-8.72-.88-5.48-1.15-10.62.77-16,1.18-3.27,1.27-6.92,1.92-10.38.19-1.06.75-2.05.93-3.11a10.54,10.54,0,0,0-.19-5.31c.82-2.4,1.83-4.75,2.42-7.21A27.08,27.08,0,0,1,231,208.69c5.66-5.46,10.54-11.73,15.7-17.71,1.65-1.92,3.2-2.54,5.66-1.16A97.09,97.09,0,0,0,261.37,193.84Z" transform="translate(-80.47 -122.08)"/><path class="cls-2" d="M297.85,282.82l-.34.28.28-.33Z" transform="translate(-80.47 -122.08)"/><path class="cls-2" d="M203.81,756.46l-.32-.34.36.3Z" transform="translate(-80.47 -122.08)"/></svg>