<svg id="Layer_1" data-name="Layer 1" xmlns="http://www.w3.org/2000/svg" viewBox="0 0 391.39 509.44"><defs><style>.cls-1{fill:#1eb6b7;}.cls-2,.cls-5,.cls-6{fill:#f25967;}.cls-3{fill:#d4ebf5;}.cls-4{fill:#8cea8c;}.cls-5{font-size:138.44px;}.cls-5,.cls-6{font-family:D-DIN-Bold, D-DIN;font-weight:700;}.cls-6{font-size:36.56px;}</style></defs><title>doc</title><path class="cls-1" d="M334,42c1.58.47,3.14,1.07,4.75,1.39a43.3,43.3,0,0,1,35,37.54c.2,1.62.64,3.21,1.19,6,5.34,0,10.6,0,15.85,0,4.67,0,9.34-.09,14,.15,7.51.39,11.5,4.56,11.9,12,.12,2.29.34,4.58.55,7.43a57.64,57.64,0,0,0,6.48.75c9.33.09,18.67,0,28,.07a40.45,40.45,0,0,1,40.09,38.15c.43,7.81.24,15.65.24,23.48q0,87.74,0,175.47c0,2.6-.26,5.21-.43,8.58L466,349.86c-.2-2.42-.54-4.66-.54-6.9q0-95.47,0-191c0-13-5.09-18.19-18.07-18.26q-11.76-.06-23.5,0c-1.95,0-3.89.37-6.55.64-.19,3.71-.43,7.12-.54,10.53-.28,8-4.77,12.7-12.89,12.71q-73,.09-146,0c-8.51,0-13.19-4.8-13.45-13.36-.09-3.11,0-6.22,0-9.84-3.08-.29-5.34-.66-7.61-.68-7.33-.08-14.66-.06-22,0-13.86.07-19.1,5.23-19.11,19q0,123,0,246,0,33,0,66c0,12.19,5.54,17.67,17.74,17.68q71,0,142,0c2.3,0,4.6.21,7.21.34,3.48,8.38,6.87,16.56,10.6,25.53-2.61.24-4.51.57-6.4.57q-77.49,0-155,0c-25.47-.05-42.55-17.32-42.56-42.8q0-157.45,0-314.93c0-26.63,17.16-43.71,43.8-43.76,8,0,16,0,24,0,2.11,0,4.22-.34,6.71-.56.23-2.16.51-3.92.57-5.69.36-9.68,4.56-13.92,14.27-14.08,6.83-.12,13.67,0,20.5-.09,2.44,0,4.88-.43,7.46-.68.55-3.09.93-5.7,1.47-8.28,3.83-18.41,17.21-31.38,35.65-34.65A39.36,39.36,0,0,0,328,42ZM309.46,85.39c0,12.32,9.19,21.9,21.05,22A21.67,21.67,0,0,0,352.18,85.3c-.06-11.1-10-20.61-21.51-20.63S309.44,74.07,309.46,85.39Z" transform="translate(-169.29 -42)"/><path class="cls-2" d="M369.31,455.37a95.31,95.31,0,0,1,95.24-95.43c53.52-.18,96.14,42.42,96.13,96.07,0,52.32-43,95.84-95.52,95.42C406.72,551,368.56,503.32,369.31,455.37Zm95.66,74a74,74,0,0,0,73.88-73.8c.14-40.41-33.36-73.91-73.86-73.87a74.26,74.26,0,0,0-73.94,73.85C390.94,496,424.33,529.36,465,529.35Z" transform="translate(-169.29 -42)"/><path class="cls-3" d="M368,331.33q25,0,49.93,0c5.08,0,8.66,2.56,10.23,7.29,1.48,4.46.61,8.82-3.33,11.65a13.68,13.68,0,0,1-7.35,2.45q-49.67.24-99.35.06c-6.87,0-11.37-4.51-11.39-10.66s4.7-10.75,11.83-10.79c16.48-.1,33,0,49.43,0Z" transform="translate(-169.29 -42)"/><path class="cls-3" d="M367.58,287.86c-16,0-32,0-47.93,0-8.07,0-12.88-4.09-13-10.67s4.87-10.86,12.79-10.87c32.45,0,64.91,0,97.36,0,5.66,0,9.81,2.28,11.41,7.76,1.44,5,0,9.49-4.63,12.05a17.63,17.63,0,0,1-8.11,1.72C399.53,287.94,383.55,287.86,367.58,287.86Z" transform="translate(-169.29 -42)"/><path class="cls-3" d="M368,201.24c16,0,32,0,47.93,0,8.1,0,12.71,4,12.71,10.79s-4.55,10.75-12.74,10.76q-48.18.07-96.36,0c-8.05,0-12.88-4.2-12.86-10.78s4.89-10.72,12.89-10.75C335.73,201.2,351.87,201.24,368,201.24Z" transform="translate(-169.29 -42)"/><path class="cls-3" d="M377,397.17c-3.36,6.54-6.29,12.66-9.67,18.52-.7,1.23-3.06,2.1-4.67,2.11-15.14.14-30.29.21-45.44,0a10.49,10.49,0,0,1-10.55-10.49,10.69,10.69,0,0,1,10.3-10.84c19.14-.2,38.28-.07,57.42,0A12.64,12.64,0,0,1,377,397.17Z" transform="translate(-169.29 -42)"/><path class="cls-4" d="M255.26,344.8c1.94-2.24,3.3-3.65,4.48-5.2,6.94-9.14,13.82-18.32,20.75-27.46,2.91-3.85,6.56-5.14,10.85-2.43,3.7,2.34,4.22,6.64,1.06,10.91q-15,20.25-30.3,40.25c-4.14,5.38-9,5.3-13.27-.05-5.38-6.77-10.56-13.7-15.61-20.71-3-4.12-2.39-8.56,1-11.09s7.41-1.78,10.79,2.45S251.61,340,255.26,344.8Z" transform="translate(-169.29 -42)"/><path class="cls-4" d="M255.27,279.77c2-2.26,3.31-3.68,4.49-5.24,7-9.15,13.82-18.38,20.83-27.49,3.07-4,7.52-4.8,10.91-2.3,3.54,2.61,4,6.66.81,11q-14.88,20.08-30.08,39.93c-4.2,5.46-9.07,5.49-13.32.19-5.41-6.76-10.57-13.73-15.66-20.74-3-4.13-2.46-8.55.94-11.12s7.39-1.84,10.81,2.42S251.47,274.82,255.27,279.77Z" transform="translate(-169.29 -42)"/><path class="cls-4" d="M255.19,409.79c1.88-2.1,3.27-3.47,4.44-5,6.86-9,13.62-18.11,20.51-27.1,3.56-4.64,8-5.59,11.56-2.72s3.75,6.73.21,11.48c-9.66,13-19.35,25.89-29.19,38.72-4.87,6.35-9.63,6.25-14.59-.13s-9.72-12.71-14.44-19.16c-3.4-4.65-3-9.29.7-11.89s7.46-1.53,11.09,3.12C248.63,401.13,251.7,405.22,255.19,409.79Z" transform="translate(-169.29 -42)"/><path class="cls-4" d="M255.32,214.75c2-2.32,3.34-3.76,4.52-5.32,7-9.16,13.79-18.4,20.8-27.51,3-3.95,7.64-4.78,10.91-2.1,3.81,3.12,3.79,6.87,1,10.6-10.19,13.6-20.34,27.23-30.76,40.66-3.84,5-8.71,4.92-12.63,0-5.64-7-11-14.22-16.26-21.54-2.66-3.72-2.44-7.74,1.43-10.62s7.59-1.41,10.43,2.12C248.17,205.34,251.44,209.71,255.32,214.75Z" transform="translate(-169.29 -42)"/><text class="cls-5" transform="translate(256.39 458.74)">2</text><text class="cls-6" transform="translate(328.39 425.76)">yr</text></svg>