<?xml version="1.0" encoding="utf-8"?>
<!-- Generator: Adobe Illustrator 23.0.1, SVG Export Plug-In . SVG Version: 6.00 Build 0)  -->
<svg version="1.1" id="Layer_1" xmlns="http://www.w3.org/2000/svg" xmlns:xlink="http://www.w3.org/1999/xlink" x="0px" y="0px"
	 viewBox="0 0 612 792" style="enable-background:new 0 0 612 792;" xml:space="preserve">
<style type="text/css">
	.st0{fill:#7A5141;}
	.st1{fill:#8E5D4E;}
	.st2{fill:#A3695B;}
	.st3{fill:none;stroke:#3A3433;stroke-width:1.0846;stroke-miterlimit:10;}
	.st4{fill:#4C4446;}
	.st5{fill:#695E62;}
	.st6{fill:#9A6259;}
	.st7{fill:#E0C8C3;}
	.st8{fill:#D1BCB8;}
	.st9{fill:none;}
	.st10{opacity:0.98;enable-background:new    ;}
	.st11{fill:#BB3126;}
	.st12{font-family:'MyriadPro-Regular';}
	.st13{font-size:342px;}
</style>
<rect x="113.58" y="62.6" class="st0" width="243.54" height="365.27"/>
<rect x="121.81" y="70.98" class="st1" width="226.51" height="356.9"/>
<rect x="146.49" y="97.48" class="st2" width="73.49" height="125.3"/>
<rect x="247.99" y="97.48" class="st2" width="73.49" height="125.3"/>
<rect x="146.43" y="245.67" class="st2" width="73.49" height="125.3"/>
<rect x="248.93" y="245.67" class="st2" width="73.49" height="125.3"/>
<path class="st3" d="M308.33,283.37c0,0,12.07-32.39,19.92-31.63c0,0,5.35-1.34,8.33,2.49c2.97,3.83,9.1,24.75,10.06,29.14"/>
<circle class="st4" cx="330.54" cy="256.56" r="10.12"/>
<path class="st5" d="M329.74,248.28c0,0-7.61,2.95-7.15,7.61c0.47,4.66,2.33,7.3,4.82,8.23
	C327.41,264.13,321.66,254.96,329.74,248.28z"/>
<polygon class="st6" points="219.93,101.26 151.51,101.26 151.51,218.16 219.93,218.16 219.99,222.78 146.49,222.78 146.49,97.48 
	219.99,97.48 "/>
<polygon class="st6" points="321.42,101.26 253,101.26 253,218.16 321.42,218.16 321.48,222.78 247.99,222.78 247.99,97.48 
	321.48,97.48 "/>
<polygon class="st6" points="219.93,249.45 151.51,249.45 151.51,366.35 219.93,366.35 219.99,370.98 146.49,370.98 146.49,245.67 
	219.99,245.67 "/>
<polygon class="st6" points="321.85,249.45 253.43,249.45 253.43,366.35 321.85,366.35 321.91,370.98 248.42,370.98 248.42,245.67 
	321.91,245.67 "/>
<polygon class="st7" points="371.55,312.45 286.56,312.45 286.56,283.37 312.54,283.37 371.55,283.37 "/>
<path class="st8" d="M287.85,309v-24.05h16.3v1.39C304.15,286.34,285.27,278.19,287.85,309z"/>
<rect x="298.88" y="293" class="st9" width="75.41" height="23.57"/>
<g class="st10">
	<path d="M300.62,298.92v0.62c0,0.62,0.8,1,1.69,1c0.97,0,1.68-0.46,1.68-1.29c0-0.98-1-1.31-2.04-1.71
		c-1.12-0.42-2.25-0.9-2.25-2.4c0-1.6,1.28-2.28,2.71-2.28c1.27,0,2.57,0.48,2.57,1.4v1h-1.12v-0.59c0-0.49-0.76-0.76-1.45-0.76
		c-0.83,0-1.49,0.38-1.49,1.16c0,0.9,0.85,1.2,1.8,1.56c1.25,0.47,2.48,0.95,2.48,2.52c0,1.62-1.32,2.46-2.89,2.46
		c-1.32,0-2.79-0.59-2.79-1.8v-0.89H300.62z"/>
	<path d="M306.45,300.53h1.05v-6.61h-1.05V293h6.13v1.97h-1.04v-0.98h-2.83v2.72h3v0.98h-3v2.79h3.03v-1.02h1.04v2h-6.33V300.53z"/>
	<path d="M314.03,300.53h1.06v-6.61h-1.06V293h3.67c0.6,0,1.09,0.02,1.56,0.18c0.89,0.3,1.47,1.04,1.47,2.19
		c0,1.22-0.67,2.1-1.75,2.38v0.02c0,0,0.22,0.12,0.36,0.4l1.2,2.09c0.13,0.23,0.29,0.28,0.59,0.28h0.25v0.94h-0.72
		c-0.72,0-0.89-0.13-1.18-0.64l-1.31-2.31c-0.22-0.36-0.37-0.47-0.89-0.47h-1.01v2.48h1.04v0.94h-3.3V300.53z M317.99,297.07
		c0.92,0,1.54-0.6,1.54-1.6c0-0.66-0.26-1.12-0.79-1.33c-0.28-0.11-0.64-0.16-1.04-0.16h-1.4v3.08H317.99z"/>
	<path d="M322.58,293.92h-0.83V293h3.02v0.92h-0.93l1.89,5.58c0.1,0.3,0.14,0.66,0.14,0.66h0.04c0,0,0.05-0.36,0.14-0.66l1.89-5.58
		h-0.94V293h3.02v0.92h-0.84l-2.67,7.54h-1.27L322.58,293.92z"/>
	<path d="M330.81,300.53h1.06v-6.61h-1.06V293h3.32v0.92h-1.07v6.61h1.07v0.94h-3.32V300.53z"/>
	<path d="M339.59,292.86c1.02,0,3.23,0.37,3.23,1.68v1.03h-1.12v-0.66c0-0.74-1.28-1.02-2.06-1.02c-1.81,0-3.14,1.33-3.14,3.25
		c0,2,1.37,3.43,3.21,3.43c0.6,0,2.11-0.22,2.11-1v-0.66h1.12v1.03c0,1.25-2.12,1.67-3.3,1.67c-2.54,0-4.38-1.95-4.38-4.42
		C335.26,294.7,337.14,292.86,339.59,292.86z"/>
	<path d="M344.24,300.53h1.06v-6.61h-1.06V293h6.13v1.97h-1.04v-0.98h-2.83v2.72h3v0.98h-3v2.79h3.03v-1.02h1.04v2h-6.33V300.53z"/>
	<path d="M352.92,298.92v0.62c0,0.62,0.8,1,1.69,1c0.97,0,1.68-0.46,1.68-1.29c0-0.98-1-1.31-2.04-1.71
		c-1.12-0.42-2.25-0.9-2.25-2.4c0-1.6,1.28-2.28,2.71-2.28c1.27,0,2.57,0.48,2.57,1.4v1h-1.12v-0.59c0-0.49-0.76-0.76-1.45-0.76
		c-0.83,0-1.49,0.38-1.49,1.16c0,0.9,0.85,1.2,1.8,1.56c1.25,0.47,2.48,0.95,2.48,2.52c0,1.62-1.32,2.46-2.89,2.46
		c-1.32,0-2.79-0.59-2.79-1.8v-0.89H352.92z"/>
</g>
<rect x="137.03" y="110.07" class="st9" width="212.64" height="270.33"/>
<text transform="matrix(1 0 0 1 137.0319 352.8902)" class="st11 st12 st13">X</text>
</svg>
