<?xml version="1.0" encoding="utf-8"?>
<!-- Generator: Adobe Illustrator 23.0.1, SVG Export Plug-In . SVG Version: 6.00 Build 0)  -->
<svg version="1.1" id="Layer_1" xmlns="http://www.w3.org/2000/svg" xmlns:xlink="http://www.w3.org/1999/xlink" x="0px" y="0px"
	 viewBox="0 0 612 792" style="enable-background:new 0 0 612 792;" xml:space="preserve">
<style type="text/css">
	.st0{fill:#F6D118;}
	.st1{fill:#0033AB;}
	.st2{fill:#D0132B;}
	.st3{fill:#DADDCC;}
	.st4{fill:#504A31;}
	.st5{fill:#030300;}
	.st6{fill:#C0BDAC;}
	.st7{fill:#000002;}
</style>
<rect x="97.72" y="146.98" class="st0" width="275" height="61.01"/>
<rect x="97.72" y="207.97" class="st1" width="275" height="61.01"/>
<rect x="97.72" y="268.99" class="st2" width="275" height="61.01"/>
<circle class="st3" cx="180.95" cy="237.54" r="69.11"/>
<circle class="st4" cx="180.95" cy="237.54" r="64.54"/>
<circle class="st3" cx="180.95" cy="237.99" r="60.01"/>
<path class="st4" d="M156.65,180.19l5.18,11.86h-3.27l-0.34,13.61l2.41,1.72l-0.34,3.62c0,0-4.82,2.58-3.27,5.86
	s3.62,3.27,3.62,3.27l-1.36,36.52h-4.5l5.69,4.82l-0.69,11.89l2.07,2.76v20.92c0,0-38.16-18.4-40.89-39.08
	c-2.74-20.68-4.25-38.29,6.4-52.9S156.65,180.19,156.65,180.19z"/>
<path class="st5" d="M176.81,203.45v4.34c0,0,7.17-2.45,7.74,2.27c0.57,4.72,0,43.98,0,43.98s0.06,3.21-3.74,3.21
	c-3.81,0-3.81,0-3.81,0l-0.19,3.21h15.67v-24.16l4.15-0.04v6.83l4.95,0v-7.17l2.6,0v6.8l4.53,0v-6.98c0,0,16.42-1.51,15.86-13.78
	c-0.57-12.27-7.36-14.91-10.57-16.42c-3.21-1.51-5.29-1.32-5.29-1.32l0.19-6.04l-4.72,0v5.85l-2.64,0v-5.85h-4.91l-0.08,5.29
	L176.81,203.45z"/>
<rect x="191.72" y="207.79" class="st3" width="4.83" height="24.16"/>
<rect x="201.58" y="207.79" class="st3" width="2.6" height="24.16"/>
<rect x="137.4" y="224.48" class="st6" width="27.43" height="26.11"/>
<path class="st3" d="M208.33,208.55v22.27c0,0,10.38-3.4,8.31-12.84C214.56,208.55,208.33,208.55,208.33,208.55z"/>
<path class="st7" d="M150.26,229.31c0,0-3.41,4.35-4.01,7.42c-0.6,3.07,0.85,7.41,4.01,7.11c3.15-0.29,6.05-3.74,4.6-7.26
	C153.41,233.06,150.26,229.31,150.26,229.31z"/>
<g>
	<g>
		<path d="M174.86,268.45h2.7c1.67,0,2.58,0.95,2.58,2.24c0,1.83-1.35,2.72-3.25,2.72h-1.93l-0.71,3.38h-1.16L174.86,268.45z
			 M175.17,272.44h1.7c1.26,0,2.05-0.49,2.05-1.68c0-0.93-0.61-1.34-1.63-1.34h-1.48L175.17,272.44z"/>
		<path d="M187.11,272.89h-3.86l-0.61,2.91h4.41l-0.36,0.98h-5.41l1.76-8.33h5.22l-0.21,0.98h-4.06l-0.53,2.47h3.86L187.11,272.89z"
			/>
		<path d="M192.13,269.43h-2.56l0.21-0.98h6.29l-0.21,0.98h-2.57l-1.54,7.35h-1.17L192.13,269.43z"/>
		<path d="M198.27,273.11l-0.77,3.67h-1.16l1.76-8.33h2.87c1.56,0,2.39,0.8,2.39,2.05c0,1.22-0.72,1.96-1.8,2.21
			c0.45,0.18,1.11,0.65,0.82,2.07c-0.2,0.95-0.36,1.65-0.32,2.01h-1.1c-0.04-0.36,0.04-0.99,0.27-1.98
			c0.24-1.13-0.07-1.69-1.26-1.69H198.27z M198.48,272.15h1.6c1.28,0,2.09-0.44,2.09-1.53c0-0.81-0.5-1.21-1.44-1.21h-1.68
			L198.48,272.15z"/>
		<path d="M212.65,271.78c0,2.46-1.38,5.12-4.45,5.12c-2.08,0-3.18-1.41-3.18-3.36c0-2.46,1.47-5.21,4.41-5.21
			C211.55,268.33,212.65,269.72,212.65,271.78z M206.23,273.51c0,1.39,0.66,2.43,2.12,2.43c2.11,0,3.09-2.2,3.09-4.18
			c0-1.46-0.67-2.46-2.09-2.46C207.24,269.3,206.23,271.59,206.23,273.51z"/>
	</g>
</g>
</svg>
