<?xml version="1.0" encoding="utf-8"?>
<!-- Generator: Adobe Illustrator 23.0.2, SVG Export Plug-In . SVG Version: 6.00 Build 0)  -->
<svg version="1.1" id="Layer_1" xmlns="http://www.w3.org/2000/svg" xmlns:xlink="http://www.w3.org/1999/xlink" x="0px" y="0px"
	 viewBox="0 0 434.9 835.8" style="enable-background:new 0 0 434.9 835.8;" xml:space="preserve">
<style type="text/css">
	.st0{fill:#C70032;}
	.st1{fill:#D1E9C7;}
</style>
<title>colombia</title>
<path class="st0" d="M180.9,71.8c-3.7,5.8-2.6,9.7,3.1,11.7c0.8-0.8,1.5-1.8,2.1-2.9c2.4-7,4.9-14,7-21.1c1-3.5,3.3-5.7,6.6-4
	c7.7,3.9,15.6,2.3,23.4,1.5c2.3-0.2,4.5-2.7,6.5-4.4c3.5-2.9,6.8-6,10-9.2c4.8-5.1,10.6-9,17.1-11.5c7.1-2.8,11-8.6,13-15.8
	c1-3.5,1.9-6.6,6.4-6.8c0.9,0,1.6-1.6,2.5-2.4c2.6-2.1,5-4.8,8.1-6.1c6-2.6,13.3,1.3,15.5,7.5c0.4,1.3,1,2.5,1.4,3.8
	c0.8,2.9,0.3,5.2-1.5,8.1c-5.4,8.6-14.1,11.4-22.8,13.9c-4.4,1.1-8,4.3-9.7,8.6c-1.1,2.7-2.5,5.3-3.7,8c-2.3,5.3-6,9.8-10.8,13.2
	c-4.9,3.6-8.5,9.8-11.4,15.4c-5.1,10.1-9.4,20.6-11.1,32c-0.8,5.5-1.4,11.2-3,16.5c-1.7,5.2-3.8,10.2-6.3,15.1
	c-2.5,5.2-5.4,10.1-7.9,15.3c-0.6,1.4-0.6,2.9-0.1,4.4c0.3,0.6,2.6,0.8,3.8,0.5c2.6-0.8,5.1-2,8.1-3.2c0.3,1.2,0.7,2.5,1.3,3.6
	c0.7,1,1.9,2.3,2.9,2.3c3.2-0.1,3.4,1.8,3.7,4.2c0.6,6,0.9,12.2,2.5,18c1.1,4.1,4.2,7.6,6.3,11.4c3.6,6.5,4.6,13.1,1.7,20.4
	c-1.9,4.9-2.5,10.3-3.2,15.6c-0.4,3.8-0.4,7.7-0.1,11.6c0.2,3.2,2.2,5.1,5.3,5.7c2.6,0.5,3.9,2,4.5,4.6c0.7,3,1.5,5.9,2.5,8.8
	c1.8,5.2,6.5,7.2,11.8,6.6c5.4-0.7,10.8-0.6,16.2,0.2c6,1.2,11.5,1.2,16.5-2.2c5-3.4,9-1.7,13.5,0.9c3.3,1.8,6.8,3,10.4,3.5
	c2.3,0.4,3.7,1,4.8,3.1c6.4,12.1,13,24.1,19.5,36.1c1,1.9,2.8,1.8,4.2,2.5c5.3,2.5,8.3-0.5,12.1-2.9c1.5-0.7,3.1-0.8,4.6-0.2
	c8.3,3.2,16.6,2,24.9,0.2c4.5-1.2,9-2.7,13.3-4.6c4.4-1.8,11.8,2,12.8,6.6c1,4.7,0,8.2-2.6,12.3c-2.4,3.8-3.6,8.7-4.5,13.2
	c-0.6,3.8-2.1,7.5-4.4,10.6c-1.6,2.4-2.6,5.1-2.8,8c-0.7,8.1-0.9,16.2-1.3,24.4c-0.3,5.7-2.2,11.5,0.5,17.2c0.6,1.2,0.5,2.9,0.4,4.3
	c0,9.8,2.8,19,6,28c1.3,3.8,4.2,7,6.4,10.5c0.4,0.7,0.6,1.6,1.1,2.3c3.6,5.3,2.7,9.6-1.8,14.2c-4.9,5.3-9.5,10.9-13.6,16.7
	c-1.4,1.9-1.5,4.7-2.2,7.2l1.1,0.5c0.9-0.3,1.8-1,2.6-0.9c2.1,0.5,4.5,0.8,6,2.1c1.8,1.5,2.7,4,4.2,6c2.9,3.9,5.9,7.8,8.7,11.7
	c0.4,0.7,0.6,1.6,0.7,2.4c0.9,4.3,1.8,8.7,2.7,13c1.7,8.1,3.5,16.1,5.2,24.2c1.1,5.1,2,10.2,3,15.3c0.7,3.8-1.5,4.9-5,5.1
	c0-3.5-0.2-6.9,0-10.2c0.8-8.6-1-17.2-5-24.8c-1.4-2.6-2.3-5.4-3.4-8.1c-1.7-4.1-5.6-5.3-8.8-2s-5.6,7.3-8.3,11.1
	c-0.7,1-1,2.4-1.9,3.1c-1.3,1.1-3,2.3-4.6,2.4c-0.9,0.1-2-2-2.8-3.3c-1.1-2-1.6-4.4-2.9-6.3c-1.9-2.8-4.1-2.6-4.8,0.6
	s-0.6,6.8-0.8,10.7h-2.7c-10.4,0-20.8,0.1-31.2-0.1c-3.2-0.1-6.4-1.6-9.5-1.6c-3.6,0-7.3,1-10.9,1.5c-3.4,0.5-4.1,2.6-4,5.8
	c0.2,8.7,0,17.4,0,26.1c0,1.1,0.1,2.1,0.2,2.5c5.4,0.8,10.3,1.5,15.2,2.2c0.6,0.1,1.2,0.1,1.8-0.1c3-1.3,3.9,0.9,4.9,2.8
	c2.6,4.8,2.4,10,2,16.5c-2.6-1.2-4.7-2.3-6.9-3.2c-1.6-0.7-3.6-1.9-5.1-1.5c-2.7,0.7-5.1,2.6-7.8,3.7c-2.4,1.1-4.9,1.9-7.5,2.4
	c-3.2,0.5-5,1.3-4.9,5.2c0.2,10,0.1,20.1-0.1,30.1c-0.1,3.6,0.6,6.8,3.2,9.4c3.7,3.8,7.8,7.3,11,11.5c1.7,2.2,2.9,5.7,2.5,8.3
	c-1,5.5,1,10.2,3.3,14.6c3,5.6,4.2,12,3.4,18.3c-1.5,12-2.8,24-4.2,35.9c-1.4,11.6-2.9,23.2-4.2,34.8c-1.1,9.8-2,19.6-3.1,29.4
	c-1.4,12.2-2.8,24.4-4.2,36.7c-0.2,2.1-0.3,4.2-0.5,6.4l-1.3,0.6c-2.2-3.6-4.5-7.1-6.6-10.7c-1-1.9-2-3.8-3.2-5.6
	c-1.7-2.2-3.9-2.4-6-0.5c-3.4,2.9-5.3-0.7-7.6-1.9c-0.6-0.4-0.6-3.1-0.1-4.3c6.5-15.3,13.2-30.5,19.8-45.7c2.1-4.9,1.3-6.3-3.1-9
	c-4.4-2.9-8.7-6.1-12.8-9.5c-3.9-3-7.7-6.1-11.5-9.3c-4.4-3.7-8.2-3.8-12.3,0c-4.5,4.2-7.5,4.1-12,0c-2-1.6-4.1-3-6.2-4.4
	c-3.1-2.2-5.6-1.7-7.7,1.6c-4.1,6.5-10.6,9.1-17.7,10.3c-1.8,0.3-4.1-1-6-1.9c-2.2-1.1-4.1-1.5-6.4,0.1c-3,2.1-5.7,0.4-9.1-1.1
	c-6.5-3-6.5-7-5.5-13.2c0.7-4.3-1.5-9.2-3-13.7c-0.4-1.1-2.5-2.2-4-2.4c-4.6-0.7-7.4-3.3-6.6-7.8c1.2-7.3-3.6-12.3-6-18.2
	c-0.6-1.2-1.8-2.1-3.1-2.3c-5.2,0.2-6.2-4.9-9.5-7c-1.6-1-2.8-2.8-4.5-3.3c-4.6-1.3-6.2-4.6-7.1-8.8c-1.4-7.3-2.9-14.7-8.2-20.4
	c-1.6-1.7-3.3-3.2-4.9-4.8c-0.3-0.2-0.8-0.4-0.9-0.6c-1.7-7.8-11.3-6.7-14.7-12.8c-1.7-3.1-4.1-2.4-7.9,1c-2-1.4-4.1-2.7-6.1-4.2
	c-2.8-2.2-5.4-4.1-9.1-5c-2.3-0.6-4.5-3.2-6-5.5c-2.9-4.5-6-8.5-10.8-11.1c-4.4-2.4-8.7-0.4-9.1,4.6c-0.3,4.4-1.8,5.1-6.2,3.8
	c-1.6-0.5-3.6,0.4-5.3,0c-2.7-0.5-5.6-1.1-7.8-2.5c-2.8-1.8-5.3-3.1-8.7-3s-6-1.6-6.4-5.5c-0.1-2.2-0.5-4.3-1-6.5
	c-0.4-1.2-1.3-2.8-2.4-3.2c-3.1-1-4.4-3.2-5.3-6c-0.4-1.2-1.7-2.9-2.6-2.8c-8,0.1-13.4-4.8-18.9-9.3c-4.9-4-9.6-8.3-13.9-12.9
	c-3-3.2-5.2-7.2-7.8-10.9c-0.8-1-1.5-2-2.1-3c-0.8-1.6-2.2-3.4-2-4.9c0.5-3.5,3-6.3,6.4-7.4c1.2-0.4,2.9,0.9,4.3,1.4l4.3,1.7
	c0.8-4.9,1.2-8.9-0.3-13.6c-1.9-6-2-12.8,1.8-18.6c1.3-2,2.8-4.2,6-2.9c0.5,0.2,1.4-0.7,2.1-0.9c1-0.3,2.2-1.1,3-0.8
	c5.1,2,7.5-1.6,9.9-4.7c2.8-3.4,5.2-7.2,7.7-10.8c3.7-5.2,3.7-5.2,2.9-12.1c5.3-0.1,5.4-4.9,7.3-8.2c6.1-10.8,10.6-22.3,15-33.8
	c0.3-0.8,0.6-1.6,0.8-2.4c0.1-0.3-0.1-0.7-0.4-1.8l-5,2.3c-3.4-2.1,2.7-7.6-2.8-9.3l-2.4,3.5c-2.1-2.7-2-5.2-1.1-8.1
	c1.1-3.2,1-3.3-1.5-5.8c4.6-4.8,5.9-10.9,6-17.3c0.1-3.6-0.4-7.2-0.6-10.7c-0.2-4.4-0.8-8.8-0.6-13.1c0.3-7.8,1.5-15.7-4.5-21.6
	c3.1-3.9,6.2-7.3,8.8-11c0.7-1.2,0.8-2.7,0.4-4c-1.8-5.6-3.8-11.1-5.7-16.6c-0.8-2.2-2.1-4.4,1.2-5.7c0.4-0.3,0.7-0.7,0.8-1.1
	c1-5.8,3-11.6,0.7-17.6c-0.7-1.9-0.9-4.1-3.8-4.2c-0.6,0-1.2-1.6-1.6-2.6c-2.4-5.7-4.7-11.4-7.1-17.1c-0.2-0.6-0.5-1.1-0.8-1.6
	c-4.7-5.9-1.2-10.9,1.5-16.3c1.4-2.7,1.5-6,2.2-9c0.4,0.7,0.9,1.7,1.4,2.7c1.6,3.6,3,4,5.9,1.3c1.9-1.7,3.7-3.5,5.4-5.5
	c0.8-1,1.2-2.3,1.2-3.6c0.1-3.4,1.2-6.2,4.1-8.1c2.1-1,3-3.5,2.1-5.6c-2.6-7.8-5.2-15.6-7.4-23.6c-0.5-1.8,0.7-4.1,1.2-6.5
	c4.1,6,7.7,11.2,11.2,16.6c1.9,2.8,3.5,5.8,4.7,8.9c0.4,1.3-1.3,3.2-1.3,4.9s0.6,3.8,1.7,4.6c0.9,0.7,3.5,0.2,4.5-0.6
	c1.3-1.3,2-3.1,2.1-4.9c-0.2-6.9-0.8-13.9-1.3-20.8c-0.1-0.7-0.2-1.4-0.6-2.1c-2.4-5.2-2-4.7,2.2-8.1c6.7-5.3,13-11.1,18.8-17.3
	c2.8-3.1,3.3-8.1,5.6-11.8c2-3.2,4.9-6,7.7-8.6c0.7-0.7,2.5-0.5,3.8-0.4c6.3,0.6,9.8-2.9,8.9-8.7c-0.9-5.5-1.1-10.6,0.8-16
	c1.2-3.3,1.3-6.9,1.9-10.4c0.2-1.1,0.8-2.1,0.9-3.1c0.4-1.8,0.3-3.6-0.2-5.3c0.8-2.4,1.8-4.8,2.4-7.2c1.2-5.2,4-9.9,7.9-13.6
	c5.7-5.5,10.5-11.7,15.7-17.7c1.6-1.9,3.2-2.5,5.7-1.2C174.8,69.2,177.8,70.6,180.9,71.8z"/>
<path class="st1" d="M217.4,160.7L217,161L217.4,160.7L217.4,160.7z"/>
<path class="st1" d="M123.3,634.4L123,634L123.3,634.4L123.3,634.4z"/>
</svg>
